<svg width="63" height="63" viewBox="0 0 63 63" fill="none" xmlns="http://www.w3.org/2000/svg">
<path d="M11.5418 14.1012C10.9635 14.2365 11.3326 14.2119 10.8527 14.2734C8.79785 14.7164 10.3236 15.1102 11.5418 14.1012ZM47.6807 14.9256C47.8283 14.8271 48.3451 14.3227 46.7332 13.8305C46.8316 14.335 46.401 14.2857 46.401 14.5688C47.5945 15.6516 48.0867 17.5342 49.6125 17.9279C49.9078 16.5744 48.259 15.91 47.6807 14.9256ZM10.4467 13.7074C10.6313 14.8025 11.4557 12.5508 11.468 11.751C11.148 11.9355 10.8281 12.1201 10.4959 12.2678C11.2711 12.6615 10.5943 13.0799 9.75762 13.7074C8.05957 15.8238 11.3449 12.0586 10.4467 13.7074ZM31.5 0C14.1012 0 0 14.1012 0 31.5C0 48.8865 14.1012 63 31.5 63C48.8988 63 63 48.8865 63 31.5C63 14.1012 48.8988 0 31.5 0ZM32.3367 10.5574L32.4844 10.6066C31.8937 11.3695 35.5605 13.5967 32.9273 13.7812C30.4664 14.4826 33.9609 13.1414 32.0537 13.3752C33.0627 11.9725 31.2539 11.9479 32.3367 10.5574ZM17.3988 12.5754C16.5129 11.8371 13.732 13.5844 14.7041 13.166C17.1158 12.2186 14.8641 13.2645 15.4301 14.3965C14.9133 15.467 15.2578 13.3383 13.9781 14.6057C13.0553 14.8148 10.7912 16.9066 11.0742 16.2668C11.0004 17.2635 8.37949 18.4447 8.02266 20.1059C7.16133 22.4068 7.81348 20.0197 7.65352 19.1215C6.42305 17.5588 4.18359 21.767 4.84805 23.4281C5.96777 21.4594 5.88164 23.2189 5.06953 24.0926C5.89395 25.6061 4.31895 27.5748 5.88164 28.6945C6.5707 28.8545 7.94883 26.3813 7.3459 28.9529C7.76426 26.7258 8.50254 29.482 9.69609 28.8668C9.76992 30.0357 10.4959 29.4943 10.6559 30.9094C12.6492 30.7617 14.4703 34.1332 12.0955 34.773C12.4523 34.6746 13.1537 35.3021 13.9658 34.8223C15.3439 35.9174 18.9738 36.0527 19.0723 38.7598C16.5744 39.9533 18.457 43.2264 16.2914 44.3953C13.8059 44.0262 15.4424 47.4592 14.3965 47.0654C14.8148 49.5387 11.8863 46.7455 13.0184 48.1113C15.0979 49.391 12.1078 49.1326 13.043 50.0678C11.9971 49.8463 13.6951 52.0119 13.9781 52.8117C15.4793 55.248 12.6861 52.2703 11.8617 51.4582C11.0742 49.8832 9.21621 46.8686 8.69941 44.3953C8.4041 40.8023 5.62324 38.3906 4.9834 34.8838C4.34355 32.9273 6.74297 29.7896 5.45098 28.6945C4.33125 27.8209 4.78652 24.8309 4.12207 23.2559C5.7832 16.0576 11.0619 9.99141 17.3988 6.39844C16.7467 6.87832 21.1271 5.15566 20.6227 5.57402C20.4873 5.88164 23.182 4.40508 24.8063 4.18359C24.634 4.2082 20.5857 5.66016 21.7055 5.46328C19.9705 6.3123 21.5332 5.83242 22.3945 5.40176C20.6719 6.66914 19.343 6.3123 17.3865 7.43203C15.4178 7.94883 15.8238 9.99141 14.4211 11.0127C15.2455 11.1604 17.3127 8.88398 18.5186 8.08418C21.2871 6.74297 17.1158 10.5205 19.749 8.89629C18.8631 9.7207 19.0477 11.0373 18.5062 11.4064C18.2355 11.3326 19.5768 12.0463 17.3988 12.5754ZM21.7055 6.91523C21.4225 7.29668 21.0287 8.12109 20.7949 7.6166C20.475 7.77656 20.352 8.46563 19.749 7.91191C20.1059 7.65352 20.475 7.03828 19.7736 7.41973C20.0936 7.0752 22.9482 6.10312 22.7883 5.73398C23.2928 5.41406 23.2436 5.2541 22.6652 5.45098C22.3699 5.35254 23.3666 4.51582 24.6955 4.40508C24.8801 4.40508 24.9539 4.52812 24.6217 4.49121C22.616 5.10645 23.4773 4.93418 24.8309 4.49121C24.3141 4.78652 23.9572 4.87266 23.8711 5.00801C25.2246 4.51582 23.7973 5.36484 24.1049 5.30332C23.7234 5.5002 24.1664 5.56172 23.4281 5.84473C23.5635 5.73398 22.2223 6.64453 23.0221 6.37383C22.2469 7.11211 21.9023 7.12441 21.7055 6.91523ZM22.8867 8.6748C22.9113 7.49355 24.6094 6.74297 24.4002 6.68145C26.492 5.69707 23.6742 6.71836 25.323 5.83242C25.9383 5.7709 27.2426 3.80215 29.0514 3.6791C31.0447 3.07617 30.1219 3.71602 31.5984 3.15L31.3031 3.39609C31.0447 3.43301 31.3646 3.88828 30.4295 4.57734C30.3311 5.64785 28.6453 5.15566 29.482 6.3C28.9406 5.5248 28.1285 6.27539 29.1498 6.34922C28.0547 7.18594 25.5076 7.33359 24.2895 8.72402C23.502 9.85606 22.776 9.49922 22.8867 8.6748ZM31.6354 12.6123C30.7986 14.6303 29.9865 12.317 31.4631 11.9479C31.8322 12.1447 31.9799 12.2063 31.6354 12.6123ZM28.4854 8.57637C28.2393 7.66582 28.4361 8.1457 29.9004 7.71504C30.9094 8.44102 29.0021 8.9209 28.4854 8.57637ZM51.3967 44.6906C50.24 42.6973 52.7994 40.8516 53.6607 39.1781C53.55 41.1346 53.3039 43.0664 51.3967 44.6906ZM55.7525 21.9146C54.4975 22.0131 53.3654 22.3084 52.2334 21.5947C49.6248 18.74 52.7133 24.8186 53.5746 22.333C56.6754 23.5143 53.5254 28.6084 51.5689 28.0793C50.4738 25.7168 49.1203 23.1205 46.7332 21.9639C48.5666 23.9941 49.4771 26.492 51.4459 28.3254C51.5812 30.8848 54.1775 27.3902 54.0176 29.3713C54.2637 32.7797 50.1662 34.8223 50.8799 38.243C52.4057 41.3561 47.9391 41.9221 48.4436 44.7152C46.6471 46.7209 44.7275 49.4279 41.5037 48.9973C41.5037 47.2992 40.6424 45.8596 40.4455 44.1123C38.6982 41.8975 42.2912 39.5227 40.0641 37.2094C37.4924 36.6311 40.5932 33.0873 37.9477 33.4195C36.3604 31.8322 34.0348 33.3703 31.7584 33.3826C28.9037 33.6533 25.9629 29.8758 27.2303 27.2057C26.2213 24.4248 30.4295 23.6127 30.5402 21.1641C32.5582 19.4783 35.4252 19.6875 38.1568 19.2938C37.96 21.2502 40.0271 21.2625 41.5898 21.9146C42.4635 19.7982 45.1828 22.2592 47.0408 20.918C47.6807 17.7926 45.232 19.6752 43.8293 18.6785C42.1313 16.193 47.4592 17.3988 46.9055 16.0945C44.8383 16.0822 46.0072 13.5475 44.543 14.9625C45.8596 15.1963 44.3092 16.2299 44.3461 15.0486C42.3527 14.4703 44.2723 17.3127 43.2633 17.5834C41.7252 16.9436 42.4512 18.3094 42.6111 18.5186C41.9467 19.9582 41.1346 16.4021 39.252 16.5006C37.3816 14.7902 38.5137 17.2758 40.1379 17.6818C39.7934 17.7803 40.3348 19.1953 39.9041 18.5924C38.5629 16.7467 36.0158 15.5162 34.5023 17.7803C34.3424 19.8967 30.0357 20.4996 30.7248 18.0264C29.7158 15.467 33.8502 17.9525 33.4688 15.91C30.8109 14.1504 34.1947 14.7164 35.093 13.0676C37.1355 13.1291 35.1791 11.3941 36.1389 10.8896C36.0404 12.7723 37.7016 12.4154 39.0182 12.0586C38.6982 10.9758 39.8057 11.0127 39.1289 10.1145C42.1805 8.89629 36.8033 10.6805 37.8861 8.01035C36.5695 7.0998 37.3324 10.016 37.8861 10.3236C37.923 11.2219 37.1602 12.3293 36.1143 10.4467C34.5885 11.4434 34.7484 9.4377 34.65 9.64688C34.4777 8.87168 35.8066 8.83477 35.8189 7.48125C35.7082 6.61992 35.7328 6.16465 36.348 6.11543C36.3973 6.23848 38.8705 6.27539 39.7441 7.29668C37.357 6.8168 39.3873 7.69043 40.4578 8.18262C39.3135 7.28438 40.9131 8.18262 39.9779 7.16133C40.3471 7.23516 38.9566 5.75859 40.384 7.05059C39.6088 6.12773 41.8975 6.39844 40.5439 5.70938C42.525 6.26309 41.3561 5.75859 40.1871 5.2541C36.9633 3.33457 45.8842 7.85039 42.242 5.84473C44.5676 6.34922 37.2709 4.04824 40.5932 5.05723C39.3258 4.50352 40.5562 4.81113 41.7006 5.16797C39.6457 4.52812 36.5695 3.33457 36.6926 3.28535C37.4062 3.33457 38.1076 3.49453 38.7844 3.69141C40.8885 4.31895 38.1814 3.54375 38.7598 3.55605C45.9949 5.41406 52.3318 10.2621 56.1832 16.599C57.0814 17.5465 59.5301 23.8096 58.2504 21.0287C58.8287 23.2436 58.9148 25.6307 59.2225 27.8947C58.5826 27.1811 57.8689 24.5479 57.2537 23.0836C56.9953 23.6496 56.7 22.2838 55.7525 21.9146Z" fill="#86C232"/>
</svg>
